<?xml version="1.0" encoding="UTF-8" standalone="no"?>
<!DOCTYPE svg PUBLIC "-//W3C//DTD SVG 1.1//EN"
 "http://www.w3.org/Graphics/SVG/1.1/DTD/svg11.dtd">
<!-- Generated by graphviz version 14.1.2 (0)
 -->
<!-- Title: Innovate Pages: 1 -->
<svg width="1444pt" height="1151pt"
 viewBox="0.00 0.00 1444.00 1151.00" xmlns="http://www.w3.org/2000/svg" xmlns:xlink="http://www.w3.org/1999/xlink">
<g id="graph0" class="graph" transform="scale(1 1) rotate(0) translate(21.6 1129.63)">
<title>Innovate</title>
<polygon fill="#ffffff" stroke="none" points="-21.6,21.6 -21.6,-1129.63 1422.6,-1129.63 1422.6,21.6 -21.6,21.6"/>
<text xml:space="preserve" text-anchor="middle" x="224.75" y="-1083.13" font-family="DejaVu Sans" font-size="22.00" fill="#12263a">Innovate Inc. | Production and recovery</text>
<g id="clust1" class="cluster">
<title>cluster_shared</title>
<path fill="#f7f9fb" stroke="#c9d2dc" d="M1115,-274.19C1115,-274.19 1381,-274.19 1381,-274.19 1387,-274.19 1393,-280.19 1393,-286.19 1393,-286.19 1393,-943.37 1393,-943.37 1393,-949.37 1387,-955.37 1381,-955.37 1381,-955.37 1115,-955.37 1115,-955.37 1109,-955.37 1103,-949.37 1103,-943.37 1103,-943.37 1103,-286.2 1103,-286.2 1103,-280.2 1109,-274.19 1115,-274.19"/>
<text xml:space="preserve" text-anchor="middle" x="1211.88" y="-939.02" font-family="DejaVu Sans" font-size="13.00" fill="#12263a">SHARED / SECURITY ACCOUNT</text>
</g>
<g id="clust2" class="cluster">
<title>cluster_prod</title>
<path fill="#f4f9fd" stroke="#699bbb" stroke-width="1.6" d="M20,-257.57C20,-257.57 1031,-257.57 1031,-257.57 1037,-257.57 1043,-263.57 1043,-269.57 1043,-269.57 1043,-946.37 1043,-946.37 1043,-952.37 1037,-958.37 1031,-958.37 1031,-958.37 20,-958.37 20,-958.37 14,-958.37 8,-952.37 8,-946.37 8,-946.37 8,-269.57 8,-269.57 8,-263.57 14,-257.57 20,-257.57"/>
<text xml:space="preserve" text-anchor="middle" x="200.88" y="-939.17" font-family="DejaVu Sans" font-size="16.00" fill="#12263a">PRODUCTION ACCOUNT &#160;| &#160;Primary: eu&#45;west&#45;1</text>
</g>
<g id="clust3" class="cluster">
<title>cluster_vpc</title>
<path fill="#f6fbf7" stroke="#8ab29b" stroke-width="1.6" d="M222,-265.57C222,-265.57 719,-265.57 719,-265.57 725,-265.57 731,-271.57 731,-277.57 731,-277.57 731,-807.96 731,-807.96 731,-813.96 725,-819.96 719,-819.96 719,-819.96 222,-819.96 222,-819.96 216,-819.96 210,-813.96 210,-807.96 210,-807.96 210,-277.57 210,-277.57 210,-271.57 216,-265.57 222,-265.57"/>
<text xml:space="preserve" text-anchor="middle" x="374" y="-802.66" font-family="DejaVu Sans" font-size="14.00" fill="#12263a">PRODUCTION VPC &#160;| &#160;Three availability zones</text>
</g>
<g id="clust4" class="cluster">
<title>cluster_eks</title>
<path fill="#ffffff" stroke="#a3b9ce" stroke-width="1.6" d="M365,-394.98C365,-394.98 676,-394.98 676,-394.98 682,-394.98 688,-400.98 688,-406.98 688,-406.98 688,-659.3 688,-659.3 688,-665.3 682,-671.3 676,-671.3 676,-671.3 365,-671.3 365,-671.3 359,-671.3 353,-665.3 353,-659.3 353,-659.3 353,-406.98 353,-406.98 353,-400.98 359,-394.98 365,-394.98"/>
<text xml:space="preserve" text-anchor="middle" x="520.38" y="-654.95" font-family="DejaVu Sans" font-size="13.00" fill="#12263a">EKS &#160;| &#160;Private API + private application subnets</text>
</g>
<g id="clust5" class="cluster">
<title>cluster_recovery</title>
<path fill="#fffbf2" stroke="#c8a96d" d="M190,-97.66C190,-97.66 496,-97.66 496,-97.66 502,-97.66 508,-103.66 508,-109.66 508,-109.66 508,-216.07 508,-216.07 508,-222.07 502,-228.07 496,-228.07 496,-228.07 190,-228.07 190,-228.07 184,-228.07 178,-222.07 178,-216.07 178,-216.07 178,-109.66 178,-109.66 178,-103.66 184,-97.66 190,-97.66"/>
<text xml:space="preserve" text-anchor="middle" x="307.12" y="-210.77" font-family="DejaVu Sans" font-size="14.00" fill="#12263a">RECOVERY REGION &#160;| &#160;eu&#45;central&#45;1</text>
</g>
<!-- users -->
<g id="node1" class="node">
<title>users</title>
<path fill="#e7f4fc" stroke="#3a8bbb" stroke-width="1.2" d="M257.33,-1065.16C257.33,-1065.16 128.67,-1065.16 128.67,-1065.16 122.67,-1065.16 116.67,-1059.16 116.67,-1053.16 116.67,-1053.16 116.67,-1022.5 116.67,-1022.5 116.67,-1016.5 122.67,-1010.5 128.67,-1010.5 128.67,-1010.5 257.33,-1010.5 257.33,-1010.5 263.33,-1010.5 269.33,-1016.5 269.33,-1022.5 269.33,-1022.5 269.33,-1053.16 269.33,-1053.16 269.33,-1059.16 263.33,-1065.16 257.33,-1065.16"/>
<text xml:space="preserve" text-anchor="middle" x="193" y="-1041.78" font-family="DejaVu Sans" font-size="14.00" fill="#172b40">Users</text>
<text xml:space="preserve" text-anchor="middle" x="193" y="-1024.53" font-family="DejaVu Sans" font-size="14.00" fill="#172b40">React SPA / HTTPS</text>
</g>
<!-- edge_services -->
<g id="node5" class="node">
<title>edge_services</title>
<path fill="#e1f0fb" stroke="#4b8bb7" stroke-width="1.2" d="M289.96,-922.87C289.96,-922.87 96.04,-922.87 96.04,-922.87 90.04,-922.87 84.04,-916.87 84.04,-910.87 84.04,-910.87 84.04,-862.96 84.04,-862.96 84.04,-856.96 90.04,-850.96 96.04,-850.96 96.04,-850.96 289.96,-850.96 289.96,-850.96 295.96,-850.96 301.96,-856.96 301.96,-862.96 301.96,-862.96 301.96,-910.87 301.96,-910.87 301.96,-916.87 295.96,-922.87 289.96,-922.87"/>
<text xml:space="preserve" text-anchor="middle" x="193" y="-899.49" font-family="DejaVu Sans" font-size="14.00" fill="#172b40">Route 53 / CloudFront</text>
<text xml:space="preserve" text-anchor="middle" x="193" y="-882.24" font-family="DejaVu Sans" font-size="14.00" fill="#172b40">WAF + ACM</text>
<text xml:space="preserve" text-anchor="middle" x="193" y="-864.99" font-family="DejaVu Sans" font-size="14.00" fill="#172b40">Static cache / uncached API</text>
</g>
<!-- users&#45;&gt;edge_services -->
<g id="edge8" class="edge">
<title>users&#45;&gt;edge_services</title>
<path fill="none" stroke="#316f9b" stroke-width="1.4" d="M193,-1010.2C193,-988.6 193,-957.67 193,-932.32"/>
<polygon fill="#316f9b" stroke="#316f9b" stroke-width="1.4" points="195.45,-932.39 193,-925.39 190.55,-932.39 195.45,-932.39"/>
<text xml:space="preserve" text-anchor="middle" x="210.62" y="-969.42" font-family="DejaVu Sans" font-size="11.00" fill="#365369">HTTPS</text>
</g>
<!-- ci -->
<g id="node2" class="node">
<title>ci</title>
<path fill="#f1edfc" stroke="#8b78ba" stroke-width="1.2" d="M1223.84,-1073.78C1223.84,-1073.78 1032.16,-1073.78 1032.16,-1073.78 1026.16,-1073.78 1020.16,-1067.78 1020.16,-1061.78 1020.16,-1061.78 1020.16,-1013.87 1020.16,-1013.87 1020.16,-1007.87 1026.16,-1001.87 1032.16,-1001.87 1032.16,-1001.87 1223.84,-1001.87 1223.84,-1001.87 1229.84,-1001.87 1235.84,-1007.87 1235.84,-1013.87 1235.84,-1013.87 1235.84,-1061.78 1235.84,-1061.78 1235.84,-1067.78 1229.84,-1073.78 1223.84,-1073.78"/>
<text xml:space="preserve" text-anchor="middle" x="1128" y="-1050.4" font-family="DejaVu Sans" font-size="14.00" fill="#172b40">GitHub Actions + Git</text>
<text xml:space="preserve" text-anchor="middle" x="1128" y="-1033.15" font-family="DejaVu Sans" font-size="14.00" fill="#172b40">Test, build, sign, promote</text>
<text xml:space="preserve" text-anchor="middle" x="1128" y="-1015.9" font-family="DejaVu Sans" font-size="14.00" fill="#172b40">Short&#45;lived AWS OIDC roles</text>
</g>
<!-- registry -->
<g id="node3" class="node">
<title>registry</title>
<path fill="#ffffff" stroke="#adc0d1" stroke-width="1.2" d="M1373.46,-922.87C1373.46,-922.87 1122.54,-922.87 1122.54,-922.87 1116.54,-922.87 1110.54,-916.87 1110.54,-910.87 1110.54,-910.87 1110.54,-862.96 1110.54,-862.96 1110.54,-856.96 1116.54,-850.96 1122.54,-850.96 1122.54,-850.96 1373.46,-850.96 1373.46,-850.96 1379.46,-850.96 1385.46,-856.96 1385.46,-862.96 1385.46,-862.96 1385.46,-910.87 1385.46,-910.87 1385.46,-916.87 1379.46,-922.87 1373.46,-922.87"/>
<text xml:space="preserve" text-anchor="middle" x="1248" y="-899.49" font-family="DejaVu Sans" font-size="14.00" fill="#172b40">ECR</text>
<text xml:space="preserve" text-anchor="middle" x="1248" y="-882.24" font-family="DejaVu Sans" font-size="14.00" fill="#172b40">Immutable amd64 + arm64 images</text>
<text xml:space="preserve" text-anchor="middle" x="1248" y="-864.99" font-family="DejaVu Sans" font-size="14.00" fill="#172b40">Scoped cross&#45;account pulls</text>
</g>
<!-- ci&#45;&gt;registry -->
<g id="edge9" class="edge">
<title>ci&#45;&gt;registry</title>
<path fill="none" stroke="#316f9b" stroke-width="1.4" stroke-dasharray="5,2" d="M1156.44,-1001.54C1173.65,-980.18 1195.7,-952.81 1213.85,-930.29"/>
<polygon fill="#316f9b" stroke="#316f9b" stroke-width="1.4" points="1215.54,-932.11 1218.02,-925.12 1211.72,-929.03 1215.54,-932.11"/>
<text xml:space="preserve" text-anchor="middle" x="1203.9" y="-969.42" font-family="DejaVu Sans" font-size="11.00" fill="#365369">publish</text>
</g>
<!-- platform -->
<g id="node10" class="node">
<title>platform</title>
<path fill="#ffffff" stroke="#adc0d1" stroke-width="1.2" d="M668.21,-638.8C668.21,-638.8 403.79,-638.8 403.79,-638.8 397.79,-638.8 391.79,-632.8 391.79,-626.8 391.79,-626.8 391.79,-561.64 391.79,-561.64 391.79,-555.64 397.79,-549.64 403.79,-549.64 403.79,-549.64 668.21,-549.64 668.21,-549.64 674.21,-549.64 680.21,-555.64 680.21,-561.64 680.21,-561.64 680.21,-626.8 680.21,-626.8 680.21,-632.8 674.21,-638.8 668.21,-638.8"/>
<text xml:space="preserve" text-anchor="middle" x="536" y="-615.42" font-family="DejaVu Sans" font-size="14.00" fill="#172b40">3 Graviton On&#45;Demand system nodes</text>
<text xml:space="preserve" text-anchor="middle" x="536" y="-598.17" font-family="DejaVu Sans" font-size="14.00" fill="#172b40">Karpenter (2 replicas) + Argo CD</text>
<text xml:space="preserve" text-anchor="middle" x="536" y="-580.92" font-family="DejaVu Sans" font-size="14.00" fill="#172b40">Platform services only</text>
<text xml:space="preserve" text-anchor="middle" x="536" y="-563.67" font-family="DejaVu Sans" font-size="14.00" fill="#172b40">Separate Spot pools for burst / jobs</text>
</g>
<!-- ci&#45;&gt;platform -->
<g id="edge10" class="edge">
<title>ci&#45;&gt;platform</title>
<path fill="none" stroke="#316f9b" stroke-width="1.4" stroke-dasharray="5,2" d="M1113.95,-1001.27C1105.75,-980.51 1097,-958.37 1097,-958.37 1097,-958.37 1049,-679.3 1049,-679.3 1049,-679.3 840.7,-645.16 689.57,-620.39"/>
<polygon fill="#316f9b" stroke="#316f9b" stroke-width="1.4" points="690,-617.98 682.7,-619.26 689.21,-622.81 690,-617.98"/>
<text xml:space="preserve" text-anchor="middle" x="985.64" y="-679.53" font-family="DejaVu Sans" font-size="11.00" fill="#365369">Git desired state</text>
</g>
<!-- registry&#45;&gt;platform -->
<g id="edge11" class="edge">
<title>registry&#45;&gt;platform</title>
<path fill="none" stroke="#316f9b" stroke-width="1.4" stroke-dasharray="5,2" d="M1221.18,-850.4C1176.58,-791.32 1092,-679.3 1092,-679.3 1092,-679.3 853.97,-643.3 689.39,-618.42"/>
<polygon fill="#316f9b" stroke="#316f9b" stroke-width="1.4" points="690.01,-616.03 682.73,-617.41 689.28,-620.88 690.01,-616.03"/>
<text xml:space="preserve" text-anchor="middle" x="1229.53" y="-747.06" font-family="DejaVu Sans" font-size="11.00" fill="#365369">pull images</text>
</g>
<!-- audit -->
<g id="node4" class="node">
<title>audit</title>
<path fill="#ffffff" stroke="#adc0d1" stroke-width="1.2" d="M1331.09,-336.85C1331.09,-336.85 1122.91,-336.85 1122.91,-336.85 1116.91,-336.85 1110.91,-330.85 1110.91,-324.85 1110.91,-324.85 1110.91,-294.19 1110.91,-294.19 1110.91,-288.19 1116.91,-282.19 1122.91,-282.19 1122.91,-282.19 1331.09,-282.19 1331.09,-282.19 1337.09,-282.19 1343.09,-288.19 1343.09,-294.19 1343.09,-294.19 1343.09,-324.85 1343.09,-324.85 1343.09,-330.85 1337.09,-336.85 1331.09,-336.85"/>
<text xml:space="preserve" text-anchor="middle" x="1227" y="-313.47" font-family="DejaVu Sans" font-size="14.00" fill="#172b40">Central audit / security</text>
<text xml:space="preserve" text-anchor="middle" x="1227" y="-296.22" font-family="DejaVu Sans" font-size="14.00" fill="#172b40">Protected daily backup copies</text>
</g>
<!-- spa -->
<g id="node6" class="node">
<title>spa</title>
<path fill="#eaf5ee" stroke="#66a278" stroke-width="1.2" d="M189.83,-786.71C189.83,-786.71 28.17,-786.71 28.17,-786.71 22.17,-786.71 16.17,-780.71 16.17,-774.71 16.17,-774.71 16.17,-726.8 16.17,-726.8 16.17,-720.8 22.17,-714.8 28.17,-714.8 28.17,-714.8 189.83,-714.8 189.83,-714.8 195.83,-714.8 201.83,-720.8 201.83,-726.8 201.83,-726.8 201.83,-774.71 201.83,-774.71 201.83,-780.71 195.83,-786.71 189.83,-786.71"/>
<text xml:space="preserve" text-anchor="middle" x="109" y="-763.33" font-family="DejaVu Sans" font-size="14.00" fill="#172b40">Private S3 REST origin</text>
<text xml:space="preserve" text-anchor="middle" x="109" y="-746.08" font-family="DejaVu Sans" font-size="14.00" fill="#172b40">Versioned React assets</text>
<text xml:space="preserve" text-anchor="middle" x="109" y="-728.83" font-family="DejaVu Sans" font-size="14.00" fill="#172b40">Origin Access Control</text>
</g>
<!-- edge_services&#45;&gt;spa -->
<g id="edge5" class="edge">
<title>edge_services&#45;&gt;spa</title>
<path fill="none" stroke="#316f9b" stroke-width="1.4" d="M170.93,-850.67C160.21,-833.55 147.24,-812.83 135.94,-794.79"/>
<polygon fill="#316f9b" stroke="#316f9b" stroke-width="1.4" points="138.13,-793.66 132.34,-789.03 133.98,-796.26 138.13,-793.66"/>
<text xml:space="preserve" text-anchor="middle" x="120.81" y="-825.78" font-family="DejaVu Sans" font-size="11.00" fill="#365369">static / OAC</text>
</g>
<!-- alb -->
<g id="node8" class="node">
<title>alb</title>
<path fill="#e3f2e8" stroke="#649a78" stroke-width="1.2" d="M403.33,-786.71C403.33,-786.71 238.67,-786.71 238.67,-786.71 232.67,-786.71 226.67,-780.71 226.67,-774.71 226.67,-774.71 226.67,-726.8 226.67,-726.8 226.67,-720.8 232.67,-714.8 238.67,-714.8 238.67,-714.8 403.33,-714.8 403.33,-714.8 409.33,-714.8 415.33,-720.8 415.33,-726.8 415.33,-726.8 415.33,-774.71 415.33,-774.71 415.33,-780.71 409.33,-786.71 403.33,-786.71"/>
<text xml:space="preserve" text-anchor="middle" x="321" y="-763.33" font-family="DejaVu Sans" font-size="14.00" fill="#172b40">Internal ALB</text>
<text xml:space="preserve" text-anchor="middle" x="321" y="-746.08" font-family="DejaVu Sans" font-size="14.00" fill="#172b40">CloudFront VPC origin</text>
<text xml:space="preserve" text-anchor="middle" x="321" y="-728.83" font-family="DejaVu Sans" font-size="14.00" fill="#172b40">Private ingress subnets</text>
</g>
<!-- edge_services&#45;&gt;alb -->
<g id="edge6" class="edge">
<title>edge_services&#45;&gt;alb</title>
<path fill="none" stroke="#316f9b" stroke-width="1.4" d="M226.63,-850.67C243.25,-833.24 263.44,-812.09 280.87,-793.82"/>
<polygon fill="#316f9b" stroke="#316f9b" stroke-width="1.4" points="282.63,-795.52 285.69,-788.77 279.08,-792.14 282.63,-795.52"/>
<text xml:space="preserve" text-anchor="middle" x="215.87" y="-825.29" font-family="DejaVu Sans" font-size="11.00" fill="#365369">/api/* / HTTPS</text>
</g>
<!-- services -->
<g id="node7" class="node">
<title>services</title>
<path fill="#ffffff" stroke="#adc0d1" stroke-width="1.2" d="M1022.59,-786.71C1022.59,-786.71 751.41,-786.71 751.41,-786.71 745.41,-786.71 739.41,-780.71 739.41,-774.71 739.41,-774.71 739.41,-726.8 739.41,-726.8 739.41,-720.8 745.41,-714.8 751.41,-714.8 751.41,-714.8 1022.59,-714.8 1022.59,-714.8 1028.59,-714.8 1034.59,-720.8 1034.59,-726.8 1034.59,-726.8 1034.59,-774.71 1034.59,-774.71 1034.59,-780.71 1028.59,-786.71 1022.59,-786.71"/>
<text xml:space="preserve" text-anchor="middle" x="887" y="-763.33" font-family="DejaVu Sans" font-size="14.00" fill="#172b40">Managed AWS services</text>
<text xml:space="preserve" text-anchor="middle" x="887" y="-746.08" font-family="DejaVu Sans" font-size="14.00" fill="#172b40">Secrets Manager / KMS / Pod Identity</text>
<text xml:space="preserve" text-anchor="middle" x="887" y="-728.83" font-family="DejaVu Sans" font-size="14.00" fill="#172b40">CloudWatch alerts / interruption queue</text>
</g>
<!-- services&#45;&gt;platform -->
<g id="edge7" class="edge">
<title>services&#45;&gt;platform</title>
<path fill="none" stroke="#316f9b" stroke-width="1.4" stroke-dasharray="5,2" d="M806.47,-714.3C758.44,-693.16 696.83,-666.03 644.55,-643.01"/>
<polygon fill="#316f9b" stroke="#316f9b" stroke-width="1.4" points="645.57,-640.79 638.18,-640.21 643.6,-645.27 645.57,-640.79"/>
<text xml:space="preserve" text-anchor="middle" x="818.14" y="-682.35" font-family="DejaVu Sans" font-size="11.00" fill="#365369">scoped access / signals</text>
</g>
<!-- api -->
<g id="node9" class="node">
<title>api</title>
<path fill="#e8f1fb" stroke="#6a91ba" stroke-width="1.2" d="M609.34,-492.14C609.34,-492.14 372.66,-492.14 372.66,-492.14 366.66,-492.14 360.66,-486.14 360.66,-480.14 360.66,-480.14 360.66,-414.98 360.66,-414.98 360.66,-408.98 366.66,-402.98 372.66,-402.98 372.66,-402.98 609.34,-402.98 609.34,-402.98 615.34,-402.98 621.34,-408.98 621.34,-414.98 621.34,-414.98 621.34,-480.14 621.34,-480.14 621.34,-486.14 615.34,-492.14 609.34,-492.14"/>
<text xml:space="preserve" text-anchor="middle" x="491" y="-468.76" font-family="DejaVu Sans" font-size="14.00" fill="#172b40">Flask / Gunicorn</text>
<text xml:space="preserve" text-anchor="middle" x="491" y="-451.51" font-family="DejaVu Sans" font-size="14.00" fill="#172b40">3+ replicas across AZs</text>
<text xml:space="preserve" text-anchor="middle" x="491" y="-434.26" font-family="DejaVu Sans" font-size="14.00" fill="#172b40">Dedicated On&#45;Demand NodePools</text>
<text xml:space="preserve" text-anchor="middle" x="491" y="-417.01" font-family="DejaVu Sans" font-size="14.00" fill="#172b40">Graviton preferred / x86 fallback</text>
</g>
<!-- alb&#45;&gt;api -->
<g id="edge2" class="edge">
<title>alb&#45;&gt;api</title>
<path fill="none" stroke="#316f9b" stroke-width="1.4" d="M290.52,-714.33C280.56,-702.75 272,-692.8 272,-692.8 272,-692.8 272,-679.3 272,-679.3 272,-679.3 279.25,-549.64 279.25,-549.64 279.25,-549.64 335.96,-522.57 390.69,-496.45"/>
<polygon fill="#316f9b" stroke="#316f9b" stroke-width="1.4" points="391.57,-498.74 396.83,-493.51 389.45,-494.32 391.57,-498.74"/>
<text xml:space="preserve" text-anchor="middle" x="329.12" y="-590.52" font-family="DejaVu Sans" font-size="11.00" fill="#365369">HTTPS / IP targets</text>
</g>
<!-- db -->
<g id="node11" class="node">
<title>db</title>
<path fill="#e5f2eb" stroke="#639b7a" stroke-width="1.2" d="M456.08,-345.48C456.08,-345.48 229.92,-345.48 229.92,-345.48 223.92,-345.48 217.92,-339.48 217.92,-333.48 217.92,-333.48 217.92,-285.57 217.92,-285.57 217.92,-279.57 223.92,-273.57 229.92,-273.57 229.92,-273.57 456.08,-273.57 456.08,-273.57 462.08,-273.57 468.08,-279.57 468.08,-285.57 468.08,-285.57 468.08,-333.48 468.08,-333.48 468.08,-339.48 462.08,-345.48 456.08,-345.48"/>
<text xml:space="preserve" text-anchor="middle" x="343" y="-322.1" font-family="DejaVu Sans" font-size="14.00" fill="#172b40">RDS for PostgreSQL</text>
<text xml:space="preserve" text-anchor="middle" x="343" y="-304.85" font-family="DejaVu Sans" font-size="14.00" fill="#172b40">Primary + synchronous standby</text>
<text xml:space="preserve" text-anchor="middle" x="343" y="-287.6" font-family="DejaVu Sans" font-size="14.00" fill="#172b40">Isolated DB subnets / Multi&#45;AZ</text>
</g>
<!-- api&#45;&gt;db -->
<g id="edge3" class="edge">
<title>api&#45;&gt;db</title>
<path fill="none" stroke="#316f9b" stroke-width="1.4" d="M442.95,-402.39C425.21,-386.09 405.19,-367.69 387.75,-351.66"/>
<polygon fill="#316f9b" stroke="#316f9b" stroke-width="1.4" points="389.83,-350.24 383.01,-347.3 386.51,-353.84 389.83,-350.24"/>
<text xml:space="preserve" text-anchor="middle" x="477.38" y="-370.53" font-family="DejaVu Sans" font-size="11.00" fill="#365369">PostgreSQL TLS :5432</text>
</g>
<!-- platform&#45;&gt;api -->
<g id="edge1" class="edge">
<title>platform&#45;&gt;api</title>
<path fill="none" stroke="#316f9b" stroke-width="1.4" stroke-dasharray="5,2" d="M520.53,-549.11C516.37,-537.25 513,-527.64 513,-527.64 513,-527.64 509.73,-515.9 505.72,-501.47"/>
<polygon fill="#316f9b" stroke="#316f9b" stroke-width="1.4" points="508.09,-500.85 503.85,-494.77 503.37,-502.17 508.09,-500.85"/>
<text xml:space="preserve" text-anchor="middle" x="567.75" y="-517.19" font-family="DejaVu Sans" font-size="11.00" fill="#365369">schedule / reconcile</text>
</g>
<!-- egress -->
<g id="node12" class="node">
<title>egress</title>
<path fill="#ffffff" stroke="#adc0d1" stroke-width="1.2" d="M711.34,-345.48C711.34,-345.48 504.66,-345.48 504.66,-345.48 498.66,-345.48 492.66,-339.48 492.66,-333.48 492.66,-333.48 492.66,-285.57 492.66,-285.57 492.66,-279.57 498.66,-273.57 504.66,-273.57 504.66,-273.57 711.34,-273.57 711.34,-273.57 717.34,-273.57 723.34,-279.57 723.34,-285.57 723.34,-285.57 723.34,-333.48 723.34,-333.48 723.34,-339.48 717.34,-345.48 711.34,-345.48"/>
<text xml:space="preserve" text-anchor="middle" x="608" y="-322.1" font-family="DejaVu Sans" font-size="14.00" fill="#172b40">NAT per AZ + AWS endpoints</text>
<text xml:space="preserve" text-anchor="middle" x="608" y="-304.85" font-family="DejaVu Sans" font-size="14.00" fill="#172b40">Controlled outbound access</text>
<text xml:space="preserve" text-anchor="middle" x="608" y="-287.6" font-family="DejaVu Sans" font-size="14.00" fill="#172b40">No public worker IPs</text>
</g>
<!-- platform&#45;&gt;egress -->
<g id="edge4" class="edge">
<title>platform&#45;&gt;egress</title>
<path fill="none" stroke="#316f9b" stroke-width="1.4" stroke-dasharray="5,2" d="M598.55,-549.11C615.37,-537.25 629,-527.64 629,-527.64 629,-527.64 634,-492.14 634,-492.14 634,-492.14 634,-394.98 634,-394.98 634,-394.98 627.82,-374.91 621.49,-354.33"/>
<polygon fill="#316f9b" stroke="#316f9b" stroke-width="1.4" points="623.9,-353.85 619.5,-347.88 619.22,-355.29 623.9,-353.85"/>
<text xml:space="preserve" text-anchor="middle" x="659.88" y="-443.86" font-family="DejaVu Sans" font-size="11.00" fill="#365369">outbound</text>
</g>
<!-- db&#45;&gt;audit -->
<g id="edge12" class="edge">
<title>db&#45;&gt;audit</title>
<path fill="none" stroke="#316f9b" stroke-width="1.4" stroke-dasharray="5,2" d="M432.98,-346.06C464.65,-358.92 492.5,-370.23 492.5,-370.23 492.5,-370.23 724.5,-370.23 724.5,-370.23 724.5,-370.23 952.82,-342.65 1101.66,-324.67"/>
<polygon fill="#316f9b" stroke="#316f9b" stroke-width="1.4" points="1101.69,-327.13 1108.35,-323.86 1101.11,-322.27 1101.69,-327.13"/>
<polygon fill="#f4f9fd" stroke="none" points="694.78,-365.21 694.78,-384.71 766.03,-384.71 766.03,-365.21 694.78,-365.21"/>
<text xml:space="preserve" text-anchor="start" x="697.78" y="-371.26" font-family="DejaVu Sans" font-size="11.00" fill="#365369">daily copies</text>
</g>
<!-- recovery -->
<g id="node13" class="node">
<title>recovery</title>
<path fill="#fff3d9" stroke="#bd9a55" stroke-width="1.2" d="M487.96,-194.82C487.96,-194.82 198.04,-194.82 198.04,-194.82 192.04,-194.82 186.04,-188.82 186.04,-182.82 186.04,-182.82 186.04,-117.66 186.04,-117.66 186.04,-111.66 192.04,-105.66 198.04,-105.66 198.04,-105.66 487.96,-105.66 487.96,-105.66 493.96,-105.66 499.96,-111.66 499.96,-117.66 499.96,-117.66 499.96,-182.82 499.96,-182.82 499.96,-188.82 493.96,-194.82 487.96,-194.82"/>
<text xml:space="preserve" text-anchor="middle" x="343" y="-171.44" font-family="DejaVu Sans" font-size="14.00" fill="#172b40">Replicated automated RDS backups</text>
<text xml:space="preserve" text-anchor="middle" x="343" y="-154.19" font-family="DejaVu Sans" font-size="14.00" fill="#172b40">Recovery images, assets and KMS access</text>
<text xml:space="preserve" text-anchor="middle" x="343" y="-136.94" font-family="DejaVu Sans" font-size="14.00" fill="#172b40">Restore VPC / EKS / RDS on incident</text>
<text xml:space="preserve" text-anchor="middle" x="343" y="-119.69" font-family="DejaVu Sans" font-size="14.00" fill="#172b40">Target RPO &lt;=15 min / RTO &lt;=4 h</text>
</g>
<!-- db&#45;&gt;recovery -->
<g id="edge13" class="edge">
<title>db&#45;&gt;recovery</title>
<path fill="none" stroke="#316f9b" stroke-width="1.4" stroke-dasharray="5,2" d="M343,-273.23C343,-252.84 343,-226.8 343,-204.01"/>
<polygon fill="#316f9b" stroke="#316f9b" stroke-width="1.4" points="345.45,-204.25 343,-197.25 340.55,-204.25 345.45,-204.25"/>
<text xml:space="preserve" text-anchor="middle" x="412" y="-239.12" font-family="DejaVu Sans" font-size="11.00" fill="#365369">asynchronous replication</text>
</g>
<!-- legend -->
<g id="node14" class="node">
<title>legend</title>
<path fill="#ffffff" stroke="none" stroke-width="1.2" d="M584.71,-60.66C584.71,-60.66 101.29,-60.66 101.29,-60.66 95.29,-60.66 89.29,-54.66 89.29,-48.66 89.29,-48.66 89.29,-12 89.29,-12 89.29,-6 95.29,0 101.29,0 101.29,0 584.71,0 584.71,0 590.71,0 596.71,-6 596.71,-12 596.71,-12 596.71,-48.66 596.71,-48.66 596.71,-54.66 590.71,-60.66 584.71,-60.66"/>
<text xml:space="preserve" text-anchor="middle" x="343" y="-40.13" font-family="DejaVu Sans" font-size="11.00" fill="#596c7d">Solid: request / data flow &#160;&#160;&#160;&#160;Dashed: delivery / management / asynchronous protection</text>
<text xml:space="preserve" text-anchor="middle" x="343" y="-26.63" font-family="DejaVu Sans" font-size="11.00" fill="#596c7d">Production view. Management and non&#45;production use separate accounts.</text>
<text xml:space="preserve" text-anchor="middle" x="343" y="-13.13" font-family="DejaVu Sans" font-size="11.00" fill="#596c7d">Recovery targets require measured restore exercises.</text>
</g>
<!-- recovery&#45;&gt;legend -->
</g>
</svg>
